<?xml version="1.0" encoding="UTF-8" standalone="no"?>
<!-- Created with Inkscape (http://www.inkscape.org/) -->

<svg
   width="157.7722mm"
   height="171.52739mm"
   viewBox="0 0 157.7722 171.52739"
   version="1.1"
   id="svg3682"
   inkscape:version="1.2.2 (b0a8486541, 2022-12-01)"
   sodipodi:docname="hej-name.svg"
   inkscape:export-filename="public/hej-name.svg"
   inkscape:export-xdpi="96"
   inkscape:export-ydpi="96"
   xmlns:inkscape="http://www.inkscape.org/namespaces/inkscape"
   xmlns:sodipodi="http://sodipodi.sourceforge.net/DTD/sodipodi-0.dtd"
   xmlns:xlink="http://www.w3.org/1999/xlink"
   xmlns="http://www.w3.org/2000/svg"
   xmlns:svg="http://www.w3.org/2000/svg">
  <sodipodi:namedview
     id="namedview3684"
     pagecolor="#505050"
     bordercolor="#eeeeee"
     borderopacity="1"
     inkscape:showpageshadow="0"
     inkscape:pageopacity="0"
     inkscape:pagecheckerboard="0"
     inkscape:deskcolor="#505050"
     inkscape:document-units="mm"
     showgrid="false"
     inkscape:zoom="0.914906"
     inkscape:cx="-4.3720338"
     inkscape:cy="585.85253"
     inkscape:window-width="2560"
     inkscape:window-height="1403"
     inkscape:window-x="2560"
     inkscape:window-y="0"
     inkscape:window-maximized="1"
     inkscape:current-layer="svg3682" />
  <defs
     id="defs3679">
    <linearGradient
       inkscape:collect="always"
       id="linearGradient11259">
      <stop
         style="stop-color:#ec1328;stop-opacity:1;"
         offset="0"
         id="stop11255" />
      <stop
         style="stop-color:#712888;stop-opacity:1;"
         offset="1"
         id="stop11257" />
    </linearGradient>
    <linearGradient
       inkscape:collect="always"
       id="linearGradient9069">
      <stop
         style="stop-color:#fe8e0a;stop-opacity:1;"
         offset="0"
         id="stop9065" />
      <stop
         style="stop-color:#df0988;stop-opacity:1;"
         offset="1"
         id="stop9067" />
    </linearGradient>
    <linearGradient
       inkscape:collect="always"
       id="linearGradient6157">
      <stop
         style="stop-color:#fff5d2;stop-opacity:1;"
         offset="0"
         id="stop6153" />
      <stop
         style="stop-color:#ffb526;stop-opacity:1;"
         offset="0.22"
         id="stop11253" />
      <stop
         style="stop-color:#ffa243;stop-opacity:1;"
         offset="0.48774734"
         id="stop14439" />
      <stop
         style="stop-color:#ff284c;stop-opacity:1;"
         offset="1"
         id="stop11251" />
    </linearGradient>
    <linearGradient
       inkscape:collect="always"
       xlink:href="#linearGradient6157"
       id="linearGradient6159"
       x1="72.781784"
       y1="101.39718"
       x2="176.04692"
       y2="218.38455"
       gradientUnits="userSpaceOnUse"
       gradientTransform="matrix(1,0.05534802,0,1,-30.34726,-75.721039)" />
    <linearGradient
       inkscape:collect="always"
       xlink:href="#linearGradient9069"
       id="linearGradient9071"
       x1="41.077549"
       y1="103.07928"
       x2="164.45076"
       y2="197.39221"
       gradientUnits="userSpaceOnUse"
       gradientTransform="matrix(1,0.05534802,0,1,-26.113925,-77.191385)" />
    <linearGradient
       inkscape:collect="always"
       xlink:href="#linearGradient11259"
       id="linearGradient11261"
       x1="50.502804"
       y1="101.88344"
       x2="168.45198"
       y2="204.31393"
       gradientUnits="userSpaceOnUse"
       gradientTransform="matrix(1,0.05534802,0,1,-26.113924,-83.658539)" />
    <filter
       inkscape:collect="always"
       style="color-interpolation-filters:sRGB"
       id="filter12038"
       x="-0.014594084"
       y="-0.015057866"
       width="1.0291882"
       height="1.0301157">
      <feGaussianBlur
         inkscape:collect="always"
         stdDeviation="0.88860018"
         id="feGaussianBlur12040" />
    </filter>
    <filter
       inkscape:collect="always"
       style="color-interpolation-filters:sRGB"
       id="filter12038-4"
       x="-0.014594083"
       y="-0.015057873"
       width="1.0291882"
       height="1.0301157">
      <feGaussianBlur
         inkscape:collect="always"
         stdDeviation="0.88860018"
         id="feGaussianBlur12040-1" />
    </filter>
  </defs>
  <g
     inkscape:label="Ebene 1"
     inkscape:groupmode="layer"
     id="layer1"
     transform="translate(-31.405593,-41.155654)">
    <path
       id="path3742-3-3-3-6-5"
       style="font-weight:bold;font-size:115.075px;-inkscape-font-specification:'sans-serif, Bold';display:inline;fill:url(#linearGradient11261);fill-opacity:1;stroke-width:9.00463"
       d="m 149.55333,10.336284 c -2.29985,0.763327 -4.26117,2.028072 -5.88459,3.794359 -1.55579,1.66711 -2.3338,4.111789 -2.3338,7.333879 0,3.14538 0.77801,5.073604 2.3338,5.784691 1.62342,0.68865 3.58474,0.651435 5.88459,-0.111889 2.23222,-0.740885 4.16004,-1.99449 5.78346,-3.760777 1.62342,-1.766287 2.43541,-4.222235 2.43541,-7.367605 0,-3.2221 -0.81199,-5.139042 -2.43541,-5.750975 -1.62342,-0.6886433 -3.55124,-0.6625543 -5.78346,0.07832 z M 11.641678,61.403379 v 82.163451 l 15.321402,-5.08522 v -35.4433 l 21.248819,-7.052572 v 35.443302 l 15.320938,-5.08508 V 44.180512 l -15.32093,5.085077 v 32.22077 l -21.24883,7.052559 V 56.318148 Z M 103.40825,51.244206 c -5.208494,1.728721 -9.774684,4.471792 -13.697934,8.228858 -3.92322,3.757077 -7.00088,8.460655 -9.23305,14.111389 -2.16457,5.551565 -3.24691,12.00993 -3.24691,19.37472 0,7.211357 1.21774,12.791287 3.65288,16.739487 2.4351,3.94821 5.78356,6.40385 10.045,7.36767 4.26147,0.8871 9.165504,0.4104 14.712214,-1.43054 4.26147,-1.41439 7.8803,-2.99916 10.85657,-4.75416 3.04391,-1.70074 5.91868,-3.76737 8.62437,-6.19973 V 91.448095 c -3.11156,2.720491 -6.12171,4.985646 -9.03035,6.794908 -2.90863,1.732553 -6.15519,3.193757 -9.74024,4.383647 -4.2615,1.41441 -7.609964,1.14467 -10.045094,-0.8089 -2.36748,-1.97601 -3.61874,-5.358365 -3.75402,-10.146602 L 128.26668,79.817211 v -8.28528 c 0,-9.12928 -2.23215,-15.407955 -6.69655,-18.836061 -4.46441,-3.504826 -10.51826,-3.988605 -18.16188,-1.451664 z m 38.53542,-13.756391 c 0,0 -0.0261,51.477205 0,59.9493 0.56655,17.476905 -36.33007,34.009105 -48.068814,34.663665 v 13.46378 c 20.494684,-2.45634 32.984964,-11.42299 39.967964,-15.83434 12.84938,-8.11729 23.16939,-26.29594 23.21903,-34.779264 V 32.470088 Z m -38.43426,25.92053 c 3.58507,-1.189894 6.22343,-0.799526 7.91449,1.170851 1.69106,1.893657 2.57052,4.747123 2.63817,8.560508 l -21.206014,7.03835 c 0.33821,-4.638531 1.45406,-8.346341 3.34805,-11.123022 1.96163,-2.799148 4.396664,-4.681304 7.305304,-5.646687 z"
       sodipodi:nodetypes="scscssscscccccccccccccsscssccccccscccscsccccscccsccccs"
       transform="matrix(1,0.10799939,0,1,31.405593,41.154567)" />
    <path
       id="path3742-3-3-3-6-0-0"
       style="font-weight:bold;font-size:115.075px;-inkscape-font-specification:'sans-serif, Bold';display:inline;fill:#000000;fill-opacity:0.419132;stroke-width:9.00463;filter:url(#filter12038-4)"
       d="m 173.88819,77.207092 c -2.29985,0.890621 -4.26117,2.263921 -5.88459,4.120054 -1.55579,1.753228 -2.3338,4.240968 -2.3338,7.46306 0,3.145352 0.77801,5.0305 2.3338,5.655487 1.62342,0.598787 3.58474,0.453017 5.88459,-0.437597 2.23222,-0.864417 4.16004,-2.224728 5.78346,-4.080856 1.62342,-1.856126 2.43541,-4.357018 2.43541,-7.502394 0,-3.222091 -0.81199,-5.0941 -2.43541,-5.616176 -1.62342,-0.598787 -3.55124,-0.466003 -5.78346,0.398422 z M 35.976575,135.90725 v 82.16344 l 15.3214,-5.93323 v -35.44329 l 21.24882,-8.22865 v 35.44329 l 15.32094,-5.93306 v -82.16344 l -15.32093,5.93306 v 32.22077 l -21.24883,8.22864 v -32.22077 z m 91.766545,-16.29661 c -5.20848,2.017 -9.77468,5.0128 -13.69793,8.98701 -3.92322,3.97422 -7.00088,8.84814 -9.23304,14.62242 -2.16457,5.67137 -3.24691,12.18964 -3.24691,19.55443 0,7.21136 1.21774,12.72389 3.65287,16.53731 2.4351,3.81342 5.78356,6.08373 10.045,6.81169 4.26147,0.65123 9.16551,-0.0969 14.7122,-2.24483 4.26147,-1.65026 7.8803,-3.43532 10.85657,-5.35505 3.04391,-1.86921 5.91868,-4.09495 8.62437,-6.67707 v -13.2338 c -3.11156,2.89271 -6.12171,5.32447 -9.03035,7.29472 -2.90863,1.89354 -6.15519,3.53443 -9.74024,4.92275 -4.26148,1.65027 -7.60994,1.56586 -10.04508,-0.25293 -2.36748,-1.84497 -3.61874,-5.15807 -3.75402,-9.93882 l 35.71498,-13.83069 v -8.28528 c 0,-9.12928 -2.23215,-15.28441 -6.69655,-18.46542 -4.46441,-3.25773 -10.51826,-3.40644 -18.16187,-0.44644 z m 38.53541,-14.8309 c 0,0 -0.0261,48.30364 0,56.77429 0.56655,17.44554 -36.33007,36.54906 -48.0688,37.85334 v 13.46378 c 20.49467,-3.59068 32.98495,-12.19031 39.96795,-16.98816 12.84938,-8.82848 23.16939,-29.16581 23.21903,-37.65188 V 98.925249 Z m -38.43425,26.98944 c 3.58506,-1.38832 6.22342,-1.14398 7.91448,0.7328 1.69106,1.80006 2.57052,4.60485 2.63817,8.41449 l -21.206,8.21206 c 0.33821,-4.65725 1.45406,-8.42682 3.34805,-11.30833 1.96164,-2.90772 4.39667,-4.92465 7.3053,-6.05102 z"
       sodipodi:nodetypes="scscssscscccccccccccccsscssccccccscccscsccccscccsccccs"
       transform="matrix(1,0.16334741,0,1,3.1750015,-37.615357)" />
    <path
       id="path3742-3-3-3"
       style="font-weight:bold;font-size:115.075px;-inkscape-font-specification:'sans-serif, Bold';display:inline;fill:url(#linearGradient9071);fill-opacity:1;stroke-width:9.00463"
       d="m 143.73247,10.660435 c -2.29985,0.763328 -4.26117,2.028073 -5.88459,3.794353 -1.55579,1.667117 -2.3338,4.111796 -2.3338,7.333886 0,3.145376 0.77801,5.073597 2.3338,5.78469 1.62342,0.68865 3.58474,0.651435 5.88459,-0.111893 2.23222,-0.740876 4.16004,-1.994489 5.78346,-3.760779 1.62342,-1.76628 2.43541,-4.22223 2.43541,-7.367606 0,-3.22209 -0.81199,-5.139041 -2.43541,-5.75097 -1.62342,-0.6886406 -3.55124,-0.6625576 -5.78346,0.07832 z M 5.8208328,61.72754 v 82.16344 l 15.3214012,-5.08522 v -35.4433 l 21.24883,-7.05256 v 35.44329 l 15.32094,-5.08508 V 44.504674 l -15.32094,5.085076 v 32.22077 l -21.24883,7.052559 V 56.642309 Z M 97.587388,50.510027 c -5.20848,1.728721 -9.77468,4.471791 -13.69793,8.228857 -3.92322,3.757078 -7.00087,8.460656 -9.23305,14.111389 -2.16457,5.551565 -3.246914,12.00993 -3.246914,19.37472 0,7.211363 1.217744,12.791277 3.652894,16.739477 2.43509,3.94821 5.78355,6.40385 10.04499,7.36767 4.26147,0.8871 9.16551,0.4104 14.7122,-1.43054 4.261482,-1.41439 7.880312,-2.99916 10.856582,-4.75417 3.04391,-1.70073 5.91868,-3.76736 8.62437,-6.19971 V 90.713916 c -3.11156,2.720491 -6.12171,4.985646 -9.03035,6.794908 -2.90863,1.732552 -6.15519,3.193756 -9.74025,4.383646 -4.261482,1.41441 -7.609942,1.14467 -10.045082,-0.8089 -2.36748,-1.976014 -3.61874,-5.358364 -3.75402,-10.146602 L 122.44582,79.083032 v -8.28528 c 0,-9.12928 -2.23215,-15.407955 -6.69655,-18.836061 -4.46441,-3.504826 -10.51826,-3.988605 -18.161882,-1.451664 z M 136.12281,37.811976 c 0,0 -0.0261,49.889705 0,58.3618 0.56655,17.476894 -36.330082,33.479934 -48.068812,34.134494 v 13.46378 c 20.494682,-2.45634 32.984962,-10.89383 39.967962,-15.30518 12.84938,-8.11729 23.16939,-26.29593 23.21903,-34.779253 V 32.794226 Z m -38.434262,24.86219 c 3.585062,-1.189894 6.223432,-0.799526 7.914492,1.170851 1.69106,1.893657 2.57052,4.747123 2.63817,8.560508 l -21.206012,7.03835 c 0.33821,-4.638531 1.45406,-8.346341 3.34805,-11.123023 1.96164,-2.799147 4.39667,-4.681303 7.3053,-5.646686 z"
       sodipodi:nodetypes="scscssscscccccccccccccsscssccccccscccscsccccscccsccccs"
       transform="matrix(1,0.10799939,0,1,31.405593,41.154567)" />
    <path
       id="path3742-3-3-3-6-0"
       style="font-weight:bold;font-size:115.075px;-inkscape-font-specification:'sans-serif, Bold';display:inline;fill:#000000;fill-opacity:0.419132;stroke-width:9.00463;filter:url(#filter12038)"
       d="m 170.40156,76.939457 c -2.29985,0.890621 -4.26117,2.263921 -5.88459,4.120054 -1.55579,1.753228 -2.3338,4.240968 -2.3338,7.463058 0,3.145376 0.77801,5.030536 2.3338,5.655519 1.62342,0.598797 3.58474,0.453027 5.88459,-0.437594 2.23222,-0.864425 4.16004,-2.224739 5.78346,-4.080882 1.62342,-1.856133 2.43541,-4.357025 2.43541,-7.502401 0,-3.222091 -0.81199,-5.0941 -2.43541,-5.616176 -1.62342,-0.598787 -3.55124,-0.466003 -5.78346,0.398422 z M 32.489958,135.63968 v 82.16344 l 15.3214,-5.93323 V 176.4266 l 21.24882,-8.22865 v 35.44329 l 15.320938,-5.93306 v -82.16344 l -15.32093,5.93306 v 32.22077 l -21.24883,8.22864 v -32.22077 z m 91.766532,-17.35494 c -5.20848,2.017 -9.77468,5.0128 -13.69793,8.98701 -3.92322,3.97422 -7.00088,8.84814 -9.23304,14.62242 -2.164574,5.67137 -3.246904,12.18964 -3.246904,19.55443 0,7.21136 1.21773,12.72389 3.652864,16.53731 2.4351,3.81342 5.78356,6.08373 10.045,6.81169 4.26147,0.65123 9.16551,-0.0969 14.7122,-2.24483 4.26147,-1.65026 7.8803,-3.43532 10.85657,-5.35505 3.04391,-1.86921 5.91868,-4.09495 8.62437,-6.67707 v -13.2338 c -3.11156,2.89271 -6.12171,5.32447 -9.03035,7.29472 -2.90863,1.89354 -6.15519,3.53443 -9.74024,4.92275 -4.26148,1.65027 -7.60994,1.56586 -10.04508,-0.25293 -2.36748,-1.84497 -3.61874,-5.15807 -3.75402,-9.93882 l 35.71498,-13.83069 v -8.28528 c 0,-9.12928 -2.23215,-15.28441 -6.69655,-18.46542 -4.46441,-3.25773 -10.51826,-3.40644 -18.16187,-0.44644 z m 38.53541,-13.77257 c 0,0 -0.0261,48.30364 0,56.77429 0.56655,17.44554 -36.33007,35.49073 -48.0688,36.79501 v 13.46378 c 20.49467,-3.59068 32.98495,-12.71948 39.96795,-17.51733 12.84938,-8.82848 23.16939,-27.57831 23.21903,-36.06438 V 98.657669 Z m -38.43425,25.93111 c 3.58506,-1.38832 6.22342,-1.14398 7.91448,0.7328 1.69106,1.80006 2.57052,4.60485 2.63817,8.41449 l -21.206,8.21206 c 0.33821,-4.65725 1.45406,-8.42682 3.34805,-11.30833 1.96164,-2.90772 4.39667,-4.92465 7.3053,-6.05102 z"
       sodipodi:nodetypes="scscssscscccccccccccccsscssccccccscccscsccccscccsccccs"
       transform="matrix(1,0.16334741,0,1,1.0583321,-37.843957)" />
    <path
       id="path3742-3-3-3-6"
       style="font-weight:bold;font-size:115.075px;-inkscape-font-specification:'sans-serif, Bold';display:inline;fill:url(#linearGradient6159);fill-opacity:1;stroke-width:9.00463"
       d="m 137.9116,10.984578 c -2.29985,0.763329 -4.26117,2.028074 -5.88459,3.794354 -1.55579,1.667118 -2.3338,4.111796 -2.3338,7.333886 0,3.145376 0.77801,5.073598 2.3338,5.784691 1.62342,0.68865 3.58474,0.651435 5.88459,-0.111894 2.23222,-0.740876 4.16004,-1.994489 5.78346,-3.760779 1.62342,-1.76628 2.43541,-4.22223 2.43541,-7.367606 0,-3.222091 -0.81199,-5.139042 -2.43541,-5.750971 -1.62342,-0.68864 -3.55124,-0.662557 -5.78346,0.07832 z M 0,62.051682 v 82.163448 l 15.3214,-5.08522 v -35.4433 l 21.24882,-7.052569 v 35.443299 l 15.320938,-5.08508 V 44.828815 l -15.32093,5.085077 v 32.22077 l -21.24883,7.052559 V 56.966451 Z M 91.76653,49.775838 c -5.20848,1.728721 -9.77468,4.471791 -13.69793,8.228856 -3.92322,3.757078 -7.00088,8.460656 -9.233044,14.11139 -2.164568,5.551565 -3.246898,12.00993 -3.246898,19.37472 0,7.21136 1.21773,12.791286 3.652865,16.739486 2.435097,3.94821 5.783557,6.40385 10.044997,7.36767 4.26147,0.8871 9.16551,0.4104 14.7122,-1.43053 4.26147,-1.4144 7.8803,-2.99917 10.85657,-4.75418 3.04391,-1.70073 5.91868,-3.76736 8.62437,-6.19972 V 89.979726 c -3.11156,2.720492 -6.12171,4.985646 -9.03035,6.794909 -2.90863,1.732553 -6.15519,3.193752 -9.74024,4.383645 -4.26148,1.41441 -7.60994,1.14467 -10.04508,-0.8089 -2.36748,-1.976009 -3.61874,-5.358364 -3.75402,-10.146601 l 35.71498,-11.853937 v -8.28528 c 0,-9.12928 -2.23215,-15.407955 -6.69655,-18.836061 -4.46441,-3.504826 -10.51826,-3.988605 -18.16187,-1.451663 z m 38.53541,-11.639722 c 0,0 -0.0261,48.302206 0,56.7743 0.56655,17.476904 -36.33007,32.950774 -48.0688,33.605334 v 13.46378 c 20.49467,-2.45634 32.98495,-10.36465 39.96795,-14.77601 12.84938,-8.11729 23.16939,-26.29594 23.21903,-34.779262 V 33.118374 Z M 91.86769,61.939977 c 3.58506,-1.189894 6.22342,-0.799526 7.91448,1.170851 1.69106,1.893656 2.57052,4.747123 2.63817,8.560507 l -21.206,7.03835 c 0.33821,-4.638531 1.45406,-8.346341 3.34805,-11.123022 1.96164,-2.799147 4.39667,-4.681303 7.3053,-5.646686 z"
       sodipodi:nodetypes="scscssscscccccccccccccsscssccccccscccscsccccscccsccccs"
       transform="matrix(1,0.10799939,0,1,31.405593,41.154567)" />
  </g>
</svg>
