<?xml version="1.0" encoding="UTF-8" standalone="no"?>
<!-- Created with Inkscape (http://www.inkscape.org/) -->

<svg
   width="500pt"
   height="500pt"
   viewBox="0 0 176.38889 176.38889"
   version="1.1"
   id="svg5"
   xml:space="preserve"
   xmlns:xlink="http://www.w3.org/1999/xlink"
   xmlns="http://www.w3.org/2000/svg"
   xmlns:svg="http://www.w3.org/2000/svg"><defs
     id="defs2"><linearGradient
       id="sun"><stop
         style="stop-color:#ffd035;stop-opacity:1;"
         offset="0"
         id="stop1709" /><stop
         style="stop-color:#ec5983;stop-opacity:1;"
         offset="0.57804513"
         id="stop2443" /><stop
         style="stop-color:#530b6a;stop-opacity:1;"
         offset="1"
         id="stop1711" /></linearGradient><linearGradient
       xlink:href="#sun"
       id="linearGradient1715"
       x1="28.126274"
       y1="28.357897"
       x2="148.23894"
       y2="148.66154"
       gradientUnits="userSpaceOnUse" /></defs><g
     id="layer1"
     style="display:inline"><path
       id="path277"
       style="display:inline;opacity:1;fill:url(#linearGradient1715);fill-opacity:1;stroke-width:0.264583"
       d="m 88.194615,3.7088175 c -3.263182,-1.76e-4 -6.526734,2.6460116 -6.526734,7.9385335 v 21.358902 a 55.619884,55.619884 0 0 1 6.526734,-0.431498 55.619884,55.619884 0 0 1 6.526216,0.390157 V 11.647351 c 0,-5.2918179 -3.263037,-7.9383575 -6.526216,-7.9385335 z M 115.42189,16.199528 c -2.49945,0.03862 -5.14465,1.628046 -6.66367,5.295283 l -5.45807,13.17749 a 55.619884,55.619884 0 0 1 12.06076,4.99091 l 5.45652,-13.173356 c 2.53137,-6.111252 -1.22975,-10.35469 -5.39554,-10.290327 z M 60.772,16.200044 c -4.08696,0.06823 -7.692859,4.273248 -5.200716,10.289811 l 5.478218,13.226066 a 55.619884,55.619884 0 0 1 12.038541,-5.04517 l -5.457547,-13.17594 c -1.518819,-3.66675 -4.164129,-5.255951 -6.663676,-5.294767 -0.06509,-10e-4 -0.129948,-0.0011 -0.19482,0 z M 32.778877,26.677958 c -0.08366,1.2e-5 -0.166877,0.0019 -0.249597,0.0052 -5.128665,0.200359 -8.514444,6.55854 -3.076298,11.996684 l 15.099853,15.099853 a 55.619884,55.619884 0 0 1 9.229927,-9.229411 L 38.682909,29.450398 c -1.87094,-1.870939 -3.851,-2.69698 -5.651851,-2.767273 -0.08441,-0.0033 -0.16852,-0.0052 -0.252181,-0.0052 z m 110.834573,0.0026 c -0.0836,-2e-6 -0.16776,0.0014 -0.25218,0.0047 -1.80082,0.07021 -3.78118,0.896601 -5.65237,2.76779 l -15.07298,15.072981 a 55.619884,55.619884 0 0 1 9.22941,9.230444 l 15.0735,-15.073498 c 5.52513,-5.525119 1.94114,-12.00222 -3.32538,-12.002368 z M 88.194615,41.884781 A 46.309433,46.309433 0 0 0 41.885298,88.194615 46.309433,46.309433 0 0 0 88.194615,134.50393 46.309433,46.309433 0 0 0 134.50393,88.194615 46.309433,46.309433 0 0 0 88.194615,41.884781 Z m 0,6.217708 A 39.652813,40.09177 0 0 1 127.84749,88.194615 39.652813,40.09177 0 0 1 88.194615,128.28622 39.652813,40.09177 0 0 1 48.541739,88.194615 39.652813,40.09177 0 0 1 88.194615,48.102489 Z m -65.479206,6.645589 c -0.112833,-5.72e-4 -0.22436,10e-4 -0.334863,0.0052 -6.85122,0.255132 -9.162029,9.449244 -0.89607,12.873115 l 13.186275,5.461682 a 55.619884,55.619884 0 0 1 5.04517,-12.038024 L 26.47952,55.56715 c -1.222233,-0.506267 -2.369424,-0.760608 -3.422013,-0.810287 -0.115127,-0.0054 -0.229266,-0.0082 -0.342098,-0.0088 z m 130.950661,0.0026 c -0.11276,6e-4 -0.22658,0.0034 -0.34158,0.0088 -1.05146,0.04921 -2.19635,0.302799 -3.4153,0.807703 l -13.18317,5.460648 a 55.619884,55.619884 0 0 1 4.99039,12.061279 l 13.18783,-5.462716 c 8.28825,-3.433109 5.94291,-12.613313 -0.90331,-12.870531 -0.11042,-0.0042 -0.22211,-0.0058 -0.33486,-0.0052 z m -65.471455,1.92028 A 31.523619,31.523619 0 0 0 56.670958,88.194615 31.523619,31.523619 0 0 0 88.194615,119.71827 31.523619,31.523619 0 0 0 119.71827,88.194615 31.523619,31.523619 0 0 0 88.194615,56.670958 Z m 3.800284,10.027295 c 0.243799,-0.007 0.498109,0.01228 0.761711,0.06098 7.47517,1.381101 10.95742,6.089781 13.18421,10.321334 2.57773,4.898429 -3.51279,8.985023 -6.448704,4.914945 -2.218137,-3.075016 -3.360313,-4.525935 -7.858952,-6.806303 -4.605535,-2.334553 -3.29525,-8.385748 0.361735,-8.490954 z M 11.635982,81.667881 c -10.5834668,0 -10.5549871,13.05295 0,13.05295 h 21.370271 a 55.619884,55.619884 0 0 1 -0.431498,-6.526216 55.619884,55.619884 0 0 1 0.431498,-6.526734 z m 131.787818,0 a 55.619884,55.619884 0 0 1 0.39067,6.526734 55.619884,55.619884 0 0 1 -0.43201,6.526216 h 21.3589 c 10.58364,0 10.58505,-13.05295 0,-13.05295 z m -108.753049,21.632789 -13.17594,5.45755 c -9.778001,4.05017 -4.784258,16.1099 4.995044,12.05921 l 13.226066,-5.47822 a 55.619884,55.619884 0 0 1 -5.04517,-12.03854 z m 107.047209,0 a 55.619884,55.619884 0 0 1 -5.04517,12.03854 l 13.22607,5.47822 c 9.778,4.05015 14.77434,-8.0085 4.99504,-12.05921 z m -9.8795,19.30476 a 55.619884,55.619884 0 0 1 -9.22941,9.23045 l 15.10605,15.10605 c 7.48367,7.48364 16.69343,-1.7664 9.22993,-9.22993 z m -87.285625,0.004 -15.106054,15.10605 c -7.483651,7.48366 1.766419,16.69343 9.229927,9.22993 l 15.106571,-15.10657 a 55.619884,55.619884 0 0 1 -9.230444,-9.22941 z m 16.497184,14.06374 -5.482869,13.2364 c -4.050122,9.77785 8.019991,14.74659 12.059211,4.99504 l 5.461682,-13.18627 a 55.619884,55.619884 0 0 1 -12.038024,-5.04517 z m 54.288671,0 a 55.619884,55.619884 0 0 1 -12.03802,5.04517 l 5.46168,13.18627 c 4.05013,9.77786 16.09844,4.7565 12.05921,-4.99504 z m -33.670809,6.70967 v 21.37027 c 0,10.58348 13.05295,10.555 13.05295,0 v -21.37027 a 55.619884,55.619884 0 0 1 -6.526216,0.43201 55.619884,55.619884 0 0 1 -6.526734,-0.43201 z" /></g><g
     id="layer3"
     style="display:none"><g
       id="g656"
       style="display:inline"><path
         id="rect422"
         style="opacity:0.74;fill:#0000ff;stroke-width:0.264583"
         d="m 81.668054,11.647323 c 0,-10.5850844 13.052777,-10.5836766 13.052777,0 V 164.75288 c 0,10.55504 -13.052777,10.58352 -13.052777,0 z" /><path
         id="rect422-6"
         style="opacity:0.74;fill:#0000ff;stroke-width:0.264583"
         d="m 164.74156,81.668057 c 10.58509,0 10.58368,13.05277 0,13.05277 H 11.635995 c -10.5550295,0 -10.5835095,-13.05277 0,-13.05277 z" /><path
         id="rect422-7"
         style="opacity:0.74;fill:#0000ff;stroke-width:0.264583"
         d="m 137.70895,29.453157 c 7.48478,-7.484785 16.71349,1.745912 9.2297,9.229702 L 38.676669,146.94484 c -7.46354,7.46354 -16.71338,-1.74603 -9.2297,-9.22971 z" /><path
         id="rect422-5"
         style="opacity:0.74;fill:#0000ff;stroke-width:0.264583"
         d="m 29.453152,38.679941 c -7.48479,-7.484785 1.74592,-16.713499 9.22971,-9.22971 L 146.94484,137.71221 c 7.46354,7.46354 -1.74603,16.71339 -9.22971,9.22971 z" /><path
         id="rect422-3"
         style="opacity:0.74;fill:#0000ff;stroke-width:0.264583"
         d="m 154.89381,108.75811 c 9.77934,4.05074 4.78296,16.10939 -4.99508,12.0592 L 21.484612,67.626437 C 11.733027,63.587198 16.701797,51.517103 26.479695,55.567241 Z" /><path
         id="rect422-3-5"
         style="opacity:0.74;fill:#0000ff;stroke-width:0.264583"
         d="m 26.490156,120.81731 c -9.779342,4.05073 -14.773124,-8.009 -4.995083,-12.0592 L 149.90919,55.567243 c 9.75158,-4.039239 14.77298,8.009059 4.99508,12.059197 z" /><path
         id="rect422-3-6"
         style="opacity:0.74;fill:#0000ff;stroke-width:0.264583"
         d="M 55.571576,26.490155 C 51.52084,16.710814 63.580575,11.717031 67.630772,21.495073 L 120.82164,149.90919 c 4.03924,9.75158 -8.00906,14.77298 -12.0592,4.99508 z" /><path
         id="rect422-3-2"
         style="opacity:0.74;fill:#0000ff;stroke-width:0.264583"
         d="m 108.75811,21.495073 c 4.05074,-9.779342 16.1094,-4.782959 12.0592,4.995082 L 67.62644,154.90427 c -4.039239,9.75159 -16.109334,4.78281 -12.059196,-4.99508 z" /></g></g></svg>
